<svg width="80" height="20" viewBox="0 0 181 45" fill="none" xmlns="http://www.w3.org/2000/svg">
<path d="M0.26 36.68H2.96C4.52 36.68 5.6 36.24 6.2 35.36C6.8 34.52 7.1 33.22 7.1 31.46V5.42H2.96V0.679998H19.04V5.42H15.32V31.04C15.32 35.12 14.48 38.1 12.8 39.98C11.12 41.9 8.36 42.86 4.52 42.86H0.26V36.68ZM48.5141 30.5V35H39.2741L38.7341 32.84C36.4141 34.72 33.8141 35.66 30.9341 35.66C28.5341 35.66 26.5941 35.02 25.1141 33.74C23.6741 32.42 22.9541 30.72 22.9541 28.64C22.9541 26.08 23.8341 24.2 25.5941 23C27.3941 21.8 29.6741 21.2 32.4341 21.2C34.4341 21.2 36.3541 21.46 38.1941 21.98V20.3C38.1941 18.7 37.7741 17.5 36.9341 16.7C36.0941 15.86 34.8741 15.44 33.2741 15.44C30.8741 15.44 28.2141 16.14 25.2941 17.54L23.5541 13.28C25.2341 12.36 27.0341 11.68 28.9541 11.24C30.9141 10.76 32.8141 10.52 34.6541 10.52C38.0141 10.52 40.6341 11.36 42.5141 13.04C44.3941 14.68 45.3341 16.94 45.3341 19.82V30.5H48.5141ZM29.4941 28.16C29.4941 29.2 29.8141 30.04 30.4541 30.68C31.1341 31.28 32.0341 31.58 33.1541 31.58C34.9541 31.58 36.6341 30.96 38.1941 29.72V25.22C36.8741 24.78 35.4341 24.56 33.8741 24.56C32.6341 24.56 31.5941 24.86 30.7541 25.46C29.9141 26.02 29.4941 26.92 29.4941 28.16ZM54.8534 39.5H57.2534C58.7734 39.5 59.8934 39.28 60.6134 38.84C61.3734 38.4 62.0534 37.46 62.6534 36.02L63.7334 33.44H61.5734L52.6934 15.62H49.5134V11.12H63.1934V15.62H60.1334L65.8334 28.28L71.1134 15.62H67.7534V11.12H80.4734V15.62H77.5934L68.0534 36.56C67.0134 38.84 66.1334 40.52 65.4134 41.6C64.6934 42.68 63.7334 43.5 62.5334 44.06C61.3734 44.62 59.7734 44.9 57.7334 44.9H54.8534V39.5ZM100.573 36.68H103.272C104.833 36.68 105.913 36.24 106.513 35.36C107.113 34.52 107.413 33.22 107.413 31.46V5.42H103.272V0.679998H119.353V5.42H115.633V31.04C115.633 35.12 114.793 38.1 113.113 39.98C111.433 41.9 108.673 42.86 104.833 42.86H100.573V36.68ZM148.827 30.5V35H139.587L139.047 32.84C136.727 34.72 134.127 35.66 131.247 35.66C128.847 35.66 126.907 35.02 125.427 33.74C123.987 32.42 123.267 30.72 123.267 28.64C123.267 26.08 124.147 24.2 125.907 23C127.707 21.8 129.987 21.2 132.747 21.2C134.747 21.2 136.667 21.46 138.507 21.98V20.3C138.507 18.7 138.087 17.5 137.247 16.7C136.407 15.86 135.187 15.44 133.587 15.44C131.187 15.44 128.527 16.14 125.607 17.54L123.867 13.28C125.547 12.36 127.347 11.68 129.267 11.24C131.227 10.76 133.127 10.52 134.967 10.52C138.327 10.52 140.947 11.36 142.827 13.04C144.707 14.68 145.647 16.94 145.647 19.82V30.5H148.827ZM129.807 28.16C129.807 29.2 130.127 30.04 130.767 30.68C131.447 31.28 132.347 31.58 133.467 31.58C135.267 31.58 136.947 30.96 138.507 29.72V25.22C137.187 24.78 135.747 24.56 134.187 24.56C132.947 24.56 131.907 24.86 131.067 25.46C130.227 26.02 129.807 26.92 129.807 28.16ZM155.166 39.5H157.566C159.086 39.5 160.206 39.28 160.926 38.84C161.686 38.4 162.366 37.46 162.966 36.02L164.046 33.44H161.886L153.006 15.62H149.826V11.12H163.506V15.62H160.446L166.146 28.28L171.426 15.62H168.066V11.12H180.786V15.62H177.906L168.366 36.56C167.326 38.84 166.446 40.52 165.726 41.6C165.006 42.68 164.046 43.5 162.846 44.06C161.686 44.62 160.086 44.9 158.046 44.9H155.166V39.5Z" fill="white"/>
</svg>
