<svg width="14" height="14" viewBox="0 0 14 14" fill="none" xmlns="http://www.w3.org/2000/svg">
<path d="M7 0.333336C3.32 0.333336 0.333328 3.32 0.333328 7C0.333328 10.68 3.32 13.6667 7 13.6667C10.68 13.6667 13.6667 10.68 13.6667 7C13.6667 3.32 10.68 0.333336 7 0.333336ZM7 12.3333C4.05333 12.3333 1.66666 9.94667 1.66666 7C1.66666 4.05334 4.05333 1.66667 7 1.66667C9.94666 1.66667 12.3333 4.05334 12.3333 7C12.3333 9.94667 9.94666 12.3333 7 12.3333Z" fill="white"/>
<path d="M9.82666 4.17334C9.04666 3.39334 8.02666 3 7 3V7V10.9967C8.02444 10.9969 9.04978 10.6069 9.83333 9.82667C11.3933 8.26667 11.3933 5.73334 9.82666 4.17334Z" fill="white"/>
</svg>
