<svg width="43" height="16" viewBox="0 0 43 16" fill="none" xmlns="http://www.w3.org/2000/svg">
<path d="M5.70117 9.77344H2.12695L1.32422 12H0.164062L3.42188 3.46875H4.40625L7.66992 12H6.51562L5.70117 9.77344ZM2.4668 8.84766H5.36719L3.91406 4.85742L2.4668 8.84766ZM11.7539 7.42383H14.1328V8.44922H11.7539V11.1445H10.6641V8.44922H8.28516V7.42383H10.6641V4.93359H11.7539V7.42383Z" fill="white"/>
<line x1="23.5" y1="2.18557e-08" x2="23.5" y2="16" stroke="white"/>
<path d="M36.7012 9.77344H33.127L32.3242 12H31.1641L34.4219 3.46875H35.4062L38.6699 12H37.5156L36.7012 9.77344ZM33.4668 8.84766H36.3672L34.9141 4.85742L33.4668 8.84766ZM41.9043 8.81836H39.0449V7.93359H41.9043V8.81836Z" fill="white"/>
</svg>
