<svg width="13" height="14" viewBox="0 0 13 14" fill="none" xmlns="http://www.w3.org/2000/svg">
<path fill-rule="evenodd" clip-rule="evenodd" d="M9.19333 10.26C9.54 9.94665 9.99333 9.74665 10.5 9.74665C11.5733 9.74665 12.4467 10.62 12.4467 11.6933C12.4467 12.7667 11.5733 13.64 10.5 13.64C9.42667 13.64 8.55333 12.7667 8.55333 11.6933C8.55333 11.5467 8.57333 11.4 8.60667 11.26L3.86 8.48665C3.5 8.81999 3.02667 9.02665 2.5 9.02665C1.39333 9.02665 0.5 8.13332 0.5 7.02665C0.5 5.91999 1.39333 5.02665 2.5 5.02665C3.02667 5.02665 3.5 5.23332 3.86 5.56665L8.56 2.82665C8.52667 2.67332 8.5 2.51999 8.5 2.35999C8.5 1.25332 9.39333 0.359985 10.5 0.359985C11.6067 0.359985 12.5 1.25332 12.5 2.35999C12.5 3.46665 11.6067 4.35999 10.5 4.35999C9.97333 4.35999 9.5 4.15332 9.14 3.81999L4.44 6.55999C4.47333 6.71332 4.5 6.86665 4.5 7.02665C4.5 7.18665 4.47333 7.33999 4.44 7.49332L9.19333 10.26ZM11.1667 2.35999C11.1667 1.99332 10.8667 1.69332 10.5 1.69332C10.1333 1.69332 9.83333 1.99332 9.83333 2.35999C9.83333 2.72665 10.1333 3.02665 10.5 3.02665C10.8667 3.02665 11.1667 2.72665 11.1667 2.35999ZM2.5 7.69332C2.13333 7.69332 1.83333 7.39332 1.83333 7.02665C1.83333 6.65999 2.13333 6.35999 2.5 6.35999C2.86667 6.35999 3.16667 6.65999 3.16667 7.02665C3.16667 7.39332 2.86667 7.69332 2.5 7.69332ZM9.83333 11.7067C9.83333 12.0733 10.1333 12.3733 10.5 12.3733C10.8667 12.3733 11.1667 12.0733 11.1667 11.7067C11.1667 11.34 10.8667 11.04 10.5 11.04C10.1333 11.04 9.83333 11.34 9.83333 11.7067Z" fill="white"/>
</svg>
