<svg width="17" height="16" viewBox="0 0 17 16" fill="none" xmlns="http://www.w3.org/2000/svg">
<path fill-rule="evenodd" clip-rule="evenodd" d="M1.16663 8C2.31996 5.07333 5.16663 3 8.49996 3C11.8333 3 14.68 5.07333 15.8333 8C14.68 10.9267 11.8333 13 8.49996 13C5.16663 13 2.31996 10.9267 1.16663 8ZM14.3799 8C13.2799 5.75333 11.0266 4.33333 8.49994 4.33333C5.97327 4.33333 3.71994 5.75333 2.61994 8C3.71994 10.2467 5.97327 11.6667 8.49994 11.6667C11.0266 11.6667 13.2799 10.2467 14.3799 8ZM8.49996 6.33333C9.41996 6.33333 10.1666 7.08 10.1666 8C10.1666 8.92 9.41996 9.66667 8.49996 9.66667C7.57996 9.66667 6.83329 8.92 6.83329 8C6.83329 7.08 7.57996 6.33333 8.49996 6.33333ZM5.49996 8C5.49996 6.34667 6.84663 5 8.49996 5C10.1533 5 11.5 6.34667 11.5 8C11.5 9.65333 10.1533 11 8.49996 11C6.84663 11 5.49996 9.65333 5.49996 8Z" fill="white"/>
</svg>
